HIERARCHY
ROOT hip
{
  OFFSET 0 0 0
  CHANNELS 6 Xposition Yposition Zposition Zrotation Yrotation Xrotation
  JOINT abdomen
  {
    OFFSET 0 20.6881 -0.73152
    CHANNELS 3 Zrotation Xrotation Yrotation
    JOINT chest
    {
      OFFSET 0 11.7043 -0.48768
      CHANNELS 3 Zrotation Xrotation Yrotation
      JOINT neck
      {
        OFFSET 0 22.1894 -2.19456
        CHANNELS 3 Zrotation Xrotation Yrotation
        JOINT head
        {
          OFFSET -0.24384 7.07133 1.2192
          CHANNELS 3 Zrotation Xrotation Yrotation
          JOINT leftEye
          {
            OFFSET 4.14528 8.04674 8.04672
            CHANNELS 3 Zrotation Xrotation Yrotation
            End Site
            {
              OFFSET 1 0 0
            }
          }
          JOINT rightEye
          {
            OFFSET -3.6576 8.04674 8.04672
            CHANNELS 3 Zrotation Xrotation Yrotation
            End Site
            {
              OFFSET 1 0 0
            }
          }
        }
      }
      JOINT rCollar
      {
        OFFSET -2.68224 19.2634 -4.8768
        CHANNELS 3 Zrotation Xrotation Yrotation
        JOINT rShldr
        {
          OFFSET -8.77824 -1.95073 1.46304
          CHANNELS 3 Zrotation Xrotation Yrotation
          JOINT rForeArm
          {
            OFFSET -28.1742 -1.7115 0.48768
            CHANNELS 3 Zrotation Xrotation Yrotation
            JOINT rHand
            {
              OFFSET -22.5879 0.773209 7.07136
              CHANNELS 3 Zrotation Xrotation Yrotation
              JOINT rThumb1
              {
                OFFSET -1.2192 -0.487915 3.41376
                CHANNELS 3 Zrotation Xrotation Yrotation
                JOINT rThumb2
                {
                  OFFSET -3.37035 -0.52449 3.41376
                  CHANNELS 3 Zrotation Xrotation Yrotation
                  End Site
                  {
                    OFFSET -1.78271 -1.18214 1.43049
                  }
                }
              }
              JOINT rIndex1
              {
                OFFSET -7.75947 0.938293 5.60832
                CHANNELS 3 Zrotation Xrotation Yrotation
                JOINT rIndex2
                {
                  OFFSET -2.54057 -0.884171 1.56538
                  CHANNELS 3 Zrotation Xrotation Yrotation
                  End Site
                  {
                    OFFSET -1.62519 -0.234802 1.16502
                  }
                }
              }
              JOINT rMid1
              {
                OFFSET -8.24714 1.18213 3.41376
                CHANNELS 3 Zrotation Xrotation Yrotation
                JOINT rMid2
                {
                  OFFSET -3.10165 -0.590103 1.0647
                  CHANNELS 3 Zrotation Xrotation Yrotation
                  End Site
                  {
                    OFFSET -2.48547 -0.328903 0.83742
                  }
                }
              }
              JOINT rRing1
              {
                OFFSET -8.82822 0.546677 1.51678
                CHANNELS 3 Zrotation Xrotation Yrotation
                JOINT rRing2
                {
                  OFFSET -2.60934 -0.819778 -0.0198488
                  CHANNELS 3 Zrotation Xrotation Yrotation
                  End Site
                  {
                    OFFSET -2.33842 -0.294052 0.168128
                  }
                }
              }
              JOINT rPinky1
              {
                OFFSET -8.27202 -0.0477905 -0.4584
                CHANNELS 3 Zrotation Xrotation Yrotation
                JOINT rPinky2
                {
                  OFFSET -1.82734 -0.647385 -0.700984
                  CHANNELS 3 Zrotation Xrotation Yrotation
                  End Site
                  {
                    OFFSET -1.69225 -0.51767 -0.607171
                  }
                }
              }
            }
          }
        }
      }
      JOINT lCollar
      {
        OFFSET 2.68224 19.2634 -4.8768
        CHANNELS 3 Zrotation Xrotation Yrotation
        JOINT lShldr
        {
          OFFSET 8.77824 -1.95073 1.46304
          CHANNELS 3 Zrotation Xrotation Yrotation
          JOINT lForeArm
          {
            OFFSET 28.1742 -1.7115 0.48768
            CHANNELS 3 Zrotation Xrotation Yrotation
            JOINT lHand
            {
              OFFSET 22.5879 0.773209 7.07136
              CHANNELS 3 Zrotation Xrotation Yrotation
              JOINT lThumb1
              {
                OFFSET 1.2192 -0.487915 3.41376
                CHANNELS 3 Zrotation Xrotation Yrotation
                JOINT lThumb2
                {
                  OFFSET 3.37035 -0.52449 3.41376
                  CHANNELS 3 Zrotation Xrotation Yrotation
                  End Site
                  {
                    OFFSET 1.78271 -1.18214 1.43049
                  }
                }
              }
              JOINT lIndex1
              {
                OFFSET 7.75947 0.938293 5.60832
                CHANNELS 3 Zrotation Xrotation Yrotation
                JOINT lIndex2
                {
                  OFFSET 2.54057 -0.884171 1.56538
                  CHANNELS 3 Zrotation Xrotation Yrotation
                  End Site
                  {
                    OFFSET 1.62519 -0.234802 1.16502
                  }
                }
              }
              JOINT lMid1
              {
                OFFSET 8.24714 1.18213 3.41376
                CHANNELS 3 Zrotation Xrotation Yrotation
                JOINT lMid2
                {
                  OFFSET 3.10165 -0.590103 1.0647
                  CHANNELS 3 Zrotation Xrotation Yrotation
                  End Site
                  {
                    OFFSET 2.48547 -0.328903 0.83742
                  }
                }
              }
              JOINT lRing1
              {
                OFFSET 8.82822 0.546677 1.51678
                CHANNELS 3 Zrotation Xrotation Yrotation
                JOINT lRing2
                {
                  OFFSET 2.60934 -0.819778 -0.0198488
                  CHANNELS 3 Zrotation Xrotation Yrotation
                  End Site
                  {
                    OFFSET 2.33842 -0.294052 0.168128
                  }
                }
              }
              JOINT lPinky1
              {
                OFFSET 8.27202 -0.0477905 -0.4584
                CHANNELS 3 Zrotation Xrotation Yrotation
                JOINT lPinky2
                {
                  OFFSET 1.82734 -0.647385 -0.700984
                  CHANNELS 3 Zrotation Xrotation Yrotation
                  End Site
                  {
                    OFFSET 1.69225 -0.51767 -0.607171
                  }
                }
              }
            }
          }
        }
      }
    }
  }
  JOINT rButtock
  {
    OFFSET -8.77824 4.35084 1.2192
    CHANNELS 3 Zrotation Xrotation Yrotation
    JOINT rThigh
    {
      OFFSET 0 -1.70687 -2.19456
      CHANNELS 3 Zrotation Xrotation Yrotation
      JOINT rShin
      {
        OFFSET 0 -36.8199 0.73152
        CHANNELS 3 Zrotation Xrotation Yrotation
        JOINT rFoot
        {
          OFFSET 0.73152 -45.1104 -5.12064
          CHANNELS 3 Zrotation Xrotation Yrotation
          End Site
          {
            OFFSET -1.1221 -3.69964 12.103
          }
        }
      }
    }
  }
  JOINT lButtock
  {
    OFFSET 8.77824 4.35084 1.2192
    CHANNELS 3 Zrotation Xrotation Yrotation
    JOINT lThigh
    {
      OFFSET 0 -1.70687 -2.19456
      CHANNELS 3 Zrotation Xrotation Yrotation
      JOINT lShin
      {
        OFFSET 0 -36.8199 0.73152
        CHANNELS 3 Zrotation Xrotation Yrotation
        JOINT lFoot
        {
          OFFSET -0.73152 -45.1104 -5.12064
          CHANNELS 3 Zrotation Xrotation Yrotation
          End Site
          {
            OFFSET 1.1221 -3.69964 12.103
          }
        }
      }
    }
  }
}
MOTION
Frames:	4
Frame Time:	0.03333
0.0 0.0 0.0 0.0 0.0 0.0 0.0 0.0 0.0 0.0 0.0 0.0 0.0 0.0 0.0 0.0 0.0 0.0 0.0 0.0 0.0 0.0 0.0 0.0 0.0 0.0 0.0 0.0 0.0 0.0 0.0 0.0 0.0 0.0 0.0 0.0 0.0 0.0 0.0 0.0 0.0 0.0 0.0 0.0 0.0 0.0 0.0 0.0 0.0 0.0 0.0 0.0 0.0 0.0 0.0 0.0 0.0 0.0 0.0 0.0 0.0 0.0 0.0 0.0 0.0 0.0 0.0 0.0 0.0 0.0 0.0 0.0 0.0 0.0 0.0 0.0 0.0 0.0 0.0 0.0 0.0 0.0 0.0 0.0 0.0 0.0 0.0 0.0 0.0 0.0 0.0 0.0 0.0 0.0 0.0 0.0 0.0 0.0 0.0 0.0 0.0 0.0 0.0 0.0 0.0 0.0 0.0 0.0 0.0 0.0 0.0 0.0 0.0 0.0 0.0 0.0 0.0 0.0 0.0 0.0 0.0 0.0 0.0 0.0 0.0 0.0 0.0 0.0 0.0 0.0 0.0 0.0
0.4308 60.3778 -0.3755 -179.85102 17.220549 176.967218 5.05842 7.406174 145.522959 10.329008 -0.061273 -134.612466 10.676798 -23.92086 108.317879 51.416153 -40.759441 33.950474 -135.970229 -10.240375 -24.990631 -150.770083 -19.025494 -65.451902 70.37603 -0.845609 24.726527 51.675865 71.816409 -24.749187 -172.574435 29.965347 -64.157496 -55.936311 20.895085 -45.986212 -62.487237 31.545713 60.067253 111.806668 -44.417493 -174.647584 -27.162338 -32.43784 -125.52396 169.810989 -17.096357 -78.785462 135.928492 -37.896122 -107.708208 -21.479638 -69.300168 -164.136341 -113.081451 12.375109 -53.436302 59.724168 43.651247 123.196988 -45.161441 56.868777 -142.481137 119.261332 76.829273 83.413268 69.568675 -16.962472 -145.293647 -60.394133 -37.353262 -43.645555 171.969899 -44.581206 58.102278 66.354714 77.195548 8.075385 123.914497 -80.155431 109.921066 114.0265 61.897102 40.874794 -128.490174 3.876417 -164.633681 86.314225 -72.486627 -58.954977 89.347195 -6.432046 -154.651309 -137.821393 -8.651623 75.583002 -80.157286 28.551728 -92.323164 -71.894312 -35.319308 -108.112056 93.383002 30.032132 128.293327 46.900978 37.943107 0.928358 58.465991 20.33734 127.355195 41.597239 49.344226 -33.413558 -8.170697 -2.562842 -99.257052 64.057592 31.91125 -94.279927 41.508287 5.441382 101.36687 9.018043 39.139815 45.843782 9.202578 0.471947 71.919821 70.279371 9.34446 -102.819394
1.4119 79.2887 -1.696 0.833418 6.674427 19.85541 -5.553885 -11.170758 143.649271 -15.744688 19.307697 -134.840231 -14.644612 11.443508 -95.216271 9.318518 19.587267 72.709714 15.535018 -11.176622 -71.304513 -157.286203 -16.138807 -70.434407 -0.681766 41.141953 6.775471 -16.924507 52.108114 10.911123 150.322622 -41.453617 -153.781477 2.934768 -1.648204 8.374167 2.652666 -69.16477 -2.904753 -13.739977 -41.37481 -106.041713 -173.166024 -44.529883 154.591149 -40.913391 -2.348639 -59.732332 -60.861174 74.17139 27.63873 11.337407 -14.925205 93.340324 -72.070358 -18.76464 17.076055 -136.866018 33.053746 -119.121514 39.092504 -27.010834 -115.788972 -140.567856 -75.046291 21.246236 -30.9061 20.555314 -7.480476 24.381422 1.64316 7.502913 79.021375 -3.633879 -54.903366 -6.684429 -70.387109 -26.321475 158.505147 -30.262584 -97.704416 -24.296177 -47.091407 -4.921131 -95.427545 33.742887 49.761327 -175.322911 -11.119475 99.080468 7.21848 10.343911 51.472848 -173.515045 -70.208185 -61.614179 145.295045 -0.68964 178.959896 -63.584531 -21.987719 168.212785 -138.175844 17.967447 25.329479 75.908097 -52.061819 14.130334 -78.812586 7.487943 -91.476405 77.371472 54.252764 12.244861 -5.315399 31.901035 -99.397617 123.961476 17.167418 -61.761671 49.564253 82.111292 133.052816 -176.554414 63.188128 176.140554 20.099094 -26.822121 80.844728 100.080966 -21.577349 -147.282564
1.8481 65.0092 -3.0934 -1.379999 1.430359 23.940548 3.199326 5.555201 63.554808 -59.656975 -15.796417 -68.355794 -20.191047 1.089162 -43.346443 5.317949 37.741926 23.167861 -25.827357 -2.380912 10.357413 -116.590262 0.939223 1.520387 -20.460446 27.94482 31.684237 -11.706142 26.97234 -2.598285 -107.031771 78.622957 42.479872 171.513564 10.885995 131.704601 -98.878972 53.993462 41.613009 -120.672545 -18.756999 -42.603194 55.622118 -49.153203 115.51715 -98.633812 0.195154 -164.790667 -22.120271 62.900588 -10.076927 68.568744 -14.468985 110.873756 -95.731009 38.687995 85.091946 -6.297343 -64.993312 -73.233325 -51.036966 -14.984225 44.254698 -135.303981 13.656453 -99.627022 -8.439435 -44.467621 7.456221 26.099457 41.640622 -18.480221 117.173897 -37.422767 -87.044741 -17.593803 -75.867375 12.444734 86.102042 61.074981 -67.154112 -176.684694 42.800179 -174.29745 62.909622 19.844774 -143.220663 75.545552 69.295242 135.922925 -171.140495 -65.289646 -172.277653 -143.949721 15.347716 115.496782 -122.771602 -80.151812 -123.309389 44.290561 6.50853 168.066735 85.567534 55.927216 -145.47438 89.311683 -15.284222 -96.659102 3.796441 -45.0206 90.903148 -3.855988 0.246014 93.003435 -19.604845 -38.156999 -157.85891 174.220848 -25.348588 99.008684 -37.14099 -14.158734 -0.0 40.747573 -25.809609 21.388631 11.584127 41.319647 48.830044 6.62142 -27.57068 -88.26004
